<svg xmlns="http://www.w3.org/2000/svg" viewBox="0 0 428.21 428.21"><path d="M389.399 64.45l.16.24a401.341 401.341 0 00-95.2 5.36c-59.112-59.954-145.771-83.725-227.2-62.32a8.001 8.001 0 00-4.32 12.72c.64.8 57.52 71.12 153.52 76a220.32 220.32 0 00-104 106.96c-45.2 3.76-81.12 52.56-81.12 112 .4 62.32 39.12 112.8 87.12 112.8 29.6 0 56-19.36 71.52-48.88a71.038 71.038 0 0038.4 11.6c48 0 86.8-50.48 86.8-112.56 0-58.56-34.72-106.8-78.8-112 .48-15.6 5.68-54.32 41.92-76l16.16-4.32a389.503 389.503 0 0194.16-5.6 8.012 8.012 0 00.88-16zm-271.04 347.76c-39.04 0-70.8-43.28-70.8-96.56s32-96.56 70.8-96.56 70.8 42.96 70.8 96.56-31.76 96.56-70.8 96.56zm180.72-134.16c0 53.28-32 96.56-70.8 96.56a56 56 0 01-32-10.56 139.693 139.693 0 008.64-48.72 125.518 125.518 0 00-35.36-90.32c12.8-26.96 35.12-42.96 58.72-42.96 39.04 0 70.8 43.12 70.8 96zm-78.88-112c-25.68 3.12-48.96 20.88-63.52 48.4a72.02 72.02 0 00-26.96-10.64c9.44-20.88 39.12-72.72 112.16-102.32h.08a114.162 114.162 0 00-21.76 64.56zm52-90.72l-9.84 2.32c-92.16 17.12-155.84-35.04-178.4-57.44 68.983-14.493 140.69 5.742 191.92 54.16h.08a8.016 8.016 0 00-3.76.96z"/><path d="M119.879 385.57l.16.4c-34.24-7.2-40-42.32-40-43.84a8.078 8.078 0 00-16 2.24c0 1.92 7.28 48 52.56 57.2h1.68a8.04 8.04 0 001.6-16z"/></svg>