<?xml version="1.0" standalone="no"?>
<!DOCTYPE svg PUBLIC "-//W3C//DTD SVG 20010904//EN"
 "http://www.w3.org/TR/2001/REC-SVG-20010904/DTD/svg10.dtd">
<svg version="1.0" xmlns="http://www.w3.org/2000/svg"
 width="260.000000pt" height="260.000000pt" viewBox="0 0 260.000000 260.000000"
 preserveAspectRatio="xMidYMid meet">
<metadata>
Created by potrace 1.11, written by Peter Selinger 2001-2013
</metadata>
<g transform="translate(0.000000,260.000000) scale(0.100000,-0.100000)"
fill="#000000" stroke="none">
<path d="M2445 2559 c-4 -6 4 -22 16 -36 l24 -26 -32 6 c-28 6 -33 4 -33 -13
0 -23 66 -100 85 -100 27 0 24 30 -5 47 -39 23 -38 34 2 22 18 -5 34 -9 35 -9
13 0 -3 40 -24 63 l-28 29 25 -7 c14 -4 31 -10 38 -12 7 -3 12 3 12 15 0 15
-9 21 -37 26 -54 8 -71 7 -78 -5z"/>
<path d="M917 2486 c-59 -24 -73 -34 -135 -91 -37 -33 -72 -93 -72 -124 0 -22
27 -41 59 -41 12 0 21 -6 21 -13 0 -7 15 -17 33 -22 27 -9 32 -14 29 -37 -3
-23 1 -28 17 -28 14 0 21 -6 21 -20 0 -15 9 -22 30 -26 17 -4 32 -15 36 -26 4
-14 11 -17 22 -12 49 23 174 -16 217 -68 13 -16 29 -45 34 -65 9 -33 8 -40
-13 -63 -59 -63 -71 -109 -51 -201 l14 -64 -30 -26 c-45 -39 -266 -149 -300
-149 -22 0 -29 5 -29 18 0 44 93 91 189 95 44 3 79 10 96 21 44 29 26 41 -61
41 -74 0 -164 19 -164 35 0 4 9 15 20 25 21 19 26 50 10 60 -5 3 -27 -3 -49
-15 -51 -26 -91 -25 -135 1 -32 19 -34 23 -24 42 33 64 121 180 179 239 67 68
71 92 10 62 -34 -17 -60 -12 -104 18 -27 20 -29 34 -12 88 15 47 -8 14 -41
-57 -19 -43 -46 -89 -59 -103 -13 -14 -25 -36 -27 -50 -2 -17 -20 -36 -56 -61
-55 -36 -112 -108 -112 -139 0 -12 -10 -19 -32 -23 -93 -15 -154 -37 -176 -64
-43 -53 -73 -113 -67 -133 18 -55 123 -97 167 -66 12 9 35 16 50 16 18 0 28 5
28 15 0 8 5 15 11 15 6 0 9 6 6 13 -2 7 -17 11 -36 9 -21 -2 -31 0 -27 6 9 16
142 102 156 102 6 0 26 11 45 26 21 15 36 21 40 15 3 -6 20 -11 36 -11 26 0
29 -3 24 -20 -6 -18 -2 -20 49 -20 69 0 72 -12 16 -72 -22 -24 -45 -59 -51
-78 -15 -45 -28 -61 -48 -58 -24 4 -41 -10 -41 -33 0 -48 -14 -56 -78 -46
-137 23 -328 -43 -447 -155 -62 -57 -65 -63 -65 -106 0 -42 1 -44 18 -30 9 8
25 18 34 21 10 4 18 13 18 20 0 26 95 108 165 142 80 40 190 61 259 51 25 -4
46 -10 46 -14 0 -4 -27 -43 -61 -87 -33 -44 -78 -109 -99 -145 -67 -114 -155
-222 -215 -263 -36 -26 -31 -61 10 -65 31 -4 55 17 55 48 0 22 101 126 119
122 9 -2 12 2 7 13 -3 9 2 29 12 43 10 15 35 58 55 95 42 76 147 217 162 217
6 0 17 -5 25 -10 13 -8 8 -24 -32 -102 -26 -51 -56 -117 -67 -146 -39 -99 -64
-136 -147 -223 -46 -48 -84 -92 -84 -98 0 -16 48 -25 65 -11 8 6 19 9 25 5 5
-3 10 -2 10 4 0 5 -5 13 -10 16 -15 9 7 45 52 84 39 33 88 101 88 121 0 23 75
169 117 229 l46 64 13 -25 c40 -77 48 -265 15 -390 -24 -92 -55 -155 -118
-240 -26 -36 -66 -90 -88 -121 -22 -31 -49 -58 -60 -59 -12 -2 -19 -9 -17 -20
4 -25 -103 -114 -187 -156 -57 -28 -87 -37 -125 -37 -28 0 -56 -3 -62 -7 -18
-12 -22 1 -13 40 7 35 0 51 -23 52 -4 0 -7 -36 -6 -80 l1 -80 72 0 c83 0 124
12 216 66 73 43 147 108 223 197 35 40 55 55 67 52 23 -8 34 11 13 23 -13 8
-6 22 49 94 74 97 95 136 126 228 30 94 39 179 29 286 -10 111 -38 192 -80
235 -23 22 -28 33 -19 42 20 20 75 -48 158 -196 99 -179 101 -201 30 -295 -57
-78 -72 -126 -57 -183 11 -40 10 -43 -17 -65 l-28 -24 28 -25 c21 -19 39 -25
73 -25 24 0 44 5 44 11 0 5 4 8 9 4 5 -3 33 4 61 15 32 13 74 20 115 20 l64 0
16 -58 c9 -31 30 -81 46 -110 16 -29 27 -58 23 -64 -4 -6 -3 -8 3 -5 12 8 68
-29 68 -45 0 -7 18 -26 40 -42 22 -17 34 -31 27 -34 -6 -2 -12 -10 -12 -18 0
-18 -40 -18 -64 -1 -15 11 -16 17 -7 35 6 11 11 23 11 26 0 11 -38 6 -66 -9
-16 -8 -42 -15 -59 -15 -16 0 -37 -4 -45 -10 -9 -6 -17 -5 -21 1 -4 7 -18 5
-40 -7 -29 -15 -119 -27 -184 -25 -11 1 -29 -3 -40 -8 -11 -6 -78 -19 -148
-30 -71 -12 -136 -25 -145 -31 -11 -6 328 -9 965 -10 l983 0 -1 97 c-1 102 -6
125 -20 102 -6 -10 -35 -15 -96 -16 -102 -3 -193 -13 -353 -41 -137 -24 -355
-46 -390 -40 -20 3 -15 7 30 21 135 41 285 168 396 334 58 86 66 101 97 173
66 154 75 402 19 565 -38 110 -203 223 -335 227 -74 3 -71 -1 -52 65 3 10 -3
-1 -14 -24 -11 -24 -27 -43 -35 -43 -9 0 -31 -14 -50 -30 -32 -29 -36 -30 -44
-13 -5 10 -13 35 -16 57 -4 21 -19 63 -33 93 -22 46 -24 56 -12 68 17 17 113
55 137 55 10 0 46 29 82 65 35 35 67 62 72 59 17 -11 38 19 54 73 24 84 10 86
-19 3 -15 -41 -24 -64 -21 -50 3 14 8 77 11 141 5 112 4 117 -18 138 -13 12
-40 27 -61 33 -32 10 -40 17 -49 51 -9 36 -16 42 -84 73 -115 53 -254 82 -440
91 l-160 8 3 24 c4 26 -35 74 -80 97 -40 21 -105 17 -171 -10z m158 -15 c6
-11 -33 -36 -42 -27 -13 13 -133 -94 -147 -131 -8 -19 -40 -13 -44 10 -4 21
89 116 138 140 39 18 86 22 95 8z m28 -55 c7 -16 -72 -86 -97 -86 -8 0 -18 -4
-21 -10 -9 -14 -35 -12 -35 3 0 6 24 33 52 59 53 47 91 60 101 34z m392 -102
c140 -30 197 -53 283 -118 51 -39 62 -53 62 -76 0 -41 -33 -73 -132 -128 l-86
-48 48 -27 c51 -29 52 -31 73 -162 6 -35 -7 -65 -28 -65 -16 0 -21 17 -29 99
-6 62 -24 94 -69 121 -38 23 -75 25 -101 5 -15 -12 -21 -39 -33 -147 -16 -160
-25 -189 -71 -240 -39 -43 -69 -61 -146 -88 -28 -9 -80 -36 -115 -59 -72 -46
-90 -50 -115 -22 -16 18 -16 20 11 39 15 11 57 29 93 40 198 62 228 85 270
205 19 56 42 267 28 267 -3 0 -18 -7 -35 -15 -56 -28 -87 -29 -117 -3 -25 21
-29 34 -36 103 -4 44 -8 70 -9 57 -2 -33 -27 -38 -77 -14 -24 12 -62 25 -84
28 -46 8 -50 21 -15 54 29 27 48 78 43 117 -2 22 1 28 17 28 17 0 20 -7 20
-53 l0 -53 20 25 c23 29 41 32 69 11 21 -16 65 -19 104 -9 38 10 24 19 -31 20
-63 1 -111 24 -132 64 -27 52 -23 57 73 68 48 5 96 8 107 6 11 -3 74 -16 140
-30z m-233 -509 c10 -60 9 -138 -2 -172 -11 -29 -51 -58 -64 -46 -11 11 -6 51
7 56 8 2 12 32 13 98 0 114 0 111 21 107 12 -2 20 -17 25 -43z m-802 -139 c0
-14 -73 -46 -104 -46 -25 0 -36 -4 -36 -15 0 -8 -9 -15 -20 -15 -27 0 -25 16
3 31 44 25 157 56 157 45z m1088 -119 c2 -11 -3 -17 -17 -17 -23 0 -35 15 -26
31 10 15 39 6 43 -14z m92 -11 c0 -8 9 -33 20 -57 24 -53 26 -97 4 -106 -8 -3
-19 -2 -24 3 -12 12 -33 151 -26 170 7 17 26 9 26 -10z m-65 -96 c-4 -19 -1
-41 9 -61 21 -43 21 -44 -16 -68 l-33 -20 -6 42 c-8 48 18 137 39 137 10 0 12
-8 7 -30z m-241 -57 c3 -10 10 -49 15 -87 11 -74 21 -98 21 -48 0 38 29 57 73
48 39 -8 67 -33 67 -60 0 -12 7 -29 15 -39 7 -11 11 -25 9 -31 -3 -7 1 -18 9
-24 12 -10 13 -4 9 36 -5 54 12 78 47 67 22 -7 37 -60 28 -95 -3 -11 -2 -18 1
-16 4 2 7 -30 7 -72 l0 -76 -40 -12 c-22 -6 -76 -14 -120 -18 -66 -5 -77 -4
-61 6 62 42 141 106 150 120 8 14 6 23 -12 40 l-23 23 -48 -26 c-33 -17 -54
-23 -64 -17 -19 10 -47 64 -47 90 0 11 -5 16 -10 13 -6 -4 -7 -11 -4 -17 3 -5
-9 -26 -28 -46 -20 -21 -38 -46 -42 -56 -10 -29 -13 -18 -20 79 -4 50 -12 114
-18 142 -10 47 -9 55 7 73 23 25 72 27 79 3z m460 -30 c-26 -87 -25 -99 4 -28
l28 70 40 -2 c84 -4 111 -10 164 -37 106 -53 139 -101 160 -233 16 -97 14
-259 -4 -337 -19 -78 -70 -194 -117 -262 -52 -77 -165 -189 -234 -234 -87 -56
-149 -72 -253 -64 l-84 6 6 27 6 26 -15 -27 c-9 -16 -20 -28 -26 -28 -20 0
-59 33 -59 49 0 10 -11 28 -25 41 -14 13 -25 34 -25 47 0 13 -4 22 -9 19 -5
-3 -21 22 -35 56 -32 72 -27 82 42 84 26 1 65 9 86 18 50 21 56 20 56 -6 1
-21 2 -21 11 -5 7 12 23 17 54 17 38 0 43 -3 38 -17 -5 -17 -5 -17 8 0 8 10
32 20 53 23 21 2 43 7 47 10 12 7 11 69 -1 135 -7 36 -7 56 0 63 6 6 40 9 76
8 49 -1 66 2 71 13 7 20 -14 166 -32 225 -8 25 -19 74 -25 110 -6 36 -20 77
-31 92 -10 15 -19 35 -19 45 0 10 -6 29 -14 43 -11 21 -10 30 1 52 13 27 38
47 60 48 9 0 8 -12 -3 -47z m-760 -30 c3 -16 8 -109 11 -208 5 -161 8 -182 25
-196 18 -15 17 -29 -1 -29 -5 0 -25 35 -46 78 -21 42 -60 117 -87 166 -54 97
-53 101 16 112 48 8 63 26 47 52 -7 11 -9 27 -6 36 10 26 35 19 41 -11z m688
-103 c7 -30 20 -69 30 -86 11 -18 19 -55 21 -88 1 -31 5 -56 9 -56 13 0 29
-71 23 -103 -9 -42 -32 -67 -62 -67 l-24 0 20 26 c12 15 17 32 14 42 -14 37
-59 106 -72 110 -8 3 -11 0 -7 -7 4 -6 2 -11 -4 -11 -8 0 -10 9 -5 28 5 15 8
34 7 42 -1 36 -12 207 -14 229 -2 19 3 26 22 31 20 5 25 2 28 -14 1 -12 7 -46
14 -76z m-1017 79 c-7 -11 -35 -12 -35 -1 0 4 9 8 20 9 11 1 18 -2 15 -8z
m902 -376 c9 -27 -100 -69 -297 -115 -25 -6 -21 23 7 50 30 31 147 66 200 61
15 -2 37 2 48 9 22 13 37 11 42 -5z m-346 -10 c13 -16 12 -17 -3 -4 -10 7 -18
15 -18 17 0 8 8 3 21 -13z m-11 -34 c6 -23 6 -23 18 -4 6 11 12 15 12 9 0 -6
-7 -17 -16 -25 -13 -11 -15 -26 -9 -89 5 -57 3 -85 -8 -111 -8 -19 -17 -56
-21 -82 l-7 -47 -47 0 -47 0 28 23 c20 15 28 31 27 47 -4 41 -1 50 15 50 22 0
32 30 27 83 -3 38 -7 47 -19 42 -13 -5 -14 -3 -3 11 8 9 13 34 11 60 -1 24 1
49 4 55 11 16 29 5 35 -22z m-92 -35 c2 -21 7 -43 12 -49 6 -7 2 -15 -8 -21
-14 -9 -24 -3 -53 28 l-36 39 30 25 c38 32 51 27 55 -22z m-131 -12 c-15 -17
-15 -19 3 -35 28 -23 26 -64 -2 -72 -13 -3 -33 -11 -45 -17 -29 -14 -55 -4
-46 19 7 19 93 123 101 123 3 0 -2 -8 -11 -18z m542 -115 c-11 -40 -4 -47 9
-8 6 17 15 31 19 31 18 0 52 -32 67 -61 17 -33 14 -49 -9 -49 -8 0 -19 -9 -25
-20 -8 -15 -21 -20 -55 -20 -38 0 -43 3 -38 18 5 16 5 16 -8 1 -12 -15 -41
-25 -89 -32 -8 -1 -17 -5 -20 -8 -3 -4 -36 -8 -75 -10 l-70 -4 3 50 c2 28 9
55 15 61 13 12 139 54 161 54 8 0 33 9 56 19 56 25 71 19 59 -22z m-559 -44
c0 -14 -71 -83 -85 -83 -17 0 -28 34 -20 59 3 11 16 22 28 24 39 7 77 7 77 0z
m527 -519 c-3 -3 -12 -4 -19 -1 -8 3 -5 6 6 6 11 1 17 -2 13 -5z m70 -10 c-3
-3 -12 -4 -19 -1 -8 3 -5 6 6 6 11 1 17 -2 13 -5z"/>
<path d="M1460 2186 c0 -2 7 -9 15 -16 13 -11 14 -10 9 4 -5 14 -24 23 -24 12z"/>
<path d="M1493 2095 c0 -22 2 -30 4 -17 2 12 2 30 0 40 -3 9 -5 -1 -4 -23z"/>
<path d="M1662 2050 c-18 -21 -56 -50 -85 -64 -60 -30 -37 -35 26 -6 49 23
120 87 112 101 -10 15 -18 10 -53 -31z"/>
<path d="M1569 2054 c-17 -20 -61 -42 -75 -37 -12 4 -39 -85 -29 -95 9 -9 18
6 18 33 0 20 11 33 53 60 30 19 54 39 54 45 0 14 -5 13 -21 -6z"/>
<path d="M1605 1100 c-3 -5 -1 -10 4 -10 6 0 11 5 11 10 0 6 -2 10 -4 10 -3 0
-8 -4 -11 -10z"/>
<path d="M1872 1271 c-6 -17 -9 -31 -6 -31 7 0 25 52 20 57 -2 2 -8 -10 -14
-26z"/>
<path d="M1822 1135 c-17 -37 -14 -45 4 -12 9 16 14 31 11 33 -2 2 -9 -7 -15
-21z"/>
<path d="M1556 415 c-9 -26 -7 -32 5 -12 6 10 9 21 6 23 -2 3 -7 -2 -11 -11z"/>
<path d="M1360 409 c0 -5 5 -7 10 -4 6 3 10 8 10 11 0 2 -4 4 -10 4 -5 0 -10
-5 -10 -11z"/>
<path d="M1536 365 c-9 -26 -7 -32 5 -12 6 10 9 21 6 23 -2 3 -7 -2 -11 -11z"/>
<path d="M1516 313 c-6 -14 -5 -15 5 -6 7 7 10 15 7 18 -3 3 -9 -2 -12 -12z"/>
<path d="M1676 1283 c-6 -14 -5 -15 5 -6 7 7 10 15 7 18 -3 3 -9 -2 -12 -12z"/>
<path d="M1765 969 c-4 -6 -5 -12 -2 -15 2 -3 7 2 10 11 7 17 1 20 -8 4z"/>
<path d="M2383 2368 c-6 -23 -9 -46 -7 -50 10 -15 25 -8 34 17 13 35 20 31 13
-9 -6 -40 13 -59 23 -21 3 14 10 25 15 25 5 0 4 -12 -1 -26 -8 -19 -7 -31 2
-41 10 -13 14 -10 24 19 25 74 26 78 11 78 -8 0 -31 11 -51 25 -20 14 -40 25
-44 25 -4 0 -13 -19 -19 -42z"/>
<path d="M1932 1770 c-6 -24 -9 -46 -7 -48 6 -6 27 68 23 80 -3 7 -10 -8 -16
-32z"/>
<path d="M85 1030 c-3 -5 1 -10 9 -10 9 0 16 5 16 10 0 6 -4 10 -9 10 -6 0
-13 -4 -16 -10z"/>
<path d="M198 1033 c7 -3 16 -2 19 1 4 3 -2 6 -13 5 -11 0 -14 -3 -6 -6z"/>
<path d="M320 980 c0 -5 5 -10 10 -10 6 0 10 5 10 10 0 6 -4 10 -10 10 -5 0
-10 -4 -10 -10z"/>
<path d="M170 909 c0 -5 5 -7 10 -4 6 3 10 8 10 11 0 2 -4 4 -10 4 -5 0 -10
-5 -10 -11z"/>
<path d="M265 890 c-3 -5 -1 -10 4 -10 6 0 11 5 11 10 0 6 -2 10 -4 10 -3 0
-8 -4 -11 -10z"/>
<path d="M700 840 c0 -5 5 -10 10 -10 6 0 10 5 10 10 0 6 -4 10 -10 10 -5 0
-10 -4 -10 -10z"/>
<path d="M155 830 c3 -5 10 -10 16 -10 5 0 9 5 9 10 0 6 -7 10 -16 10 -8 0
-12 -4 -9 -10z"/>
<path d="M400 820 c0 -5 5 -10 10 -10 6 0 10 5 10 10 0 6 -4 10 -10 10 -5 0
-10 -4 -10 -10z"/>
<path d="M580 820 c0 -5 5 -10 10 -10 6 0 10 5 10 10 0 6 -4 10 -10 10 -5 0
-10 -4 -10 -10z"/>
<path d="M286 692 c-9 -14 9 -31 23 -23 7 5 10 14 7 20 -8 13 -23 14 -30 3z"/>
<path d="M640 590 c0 -5 5 -10 10 -10 6 0 10 5 10 10 0 6 -4 10 -10 10 -5 0
-10 -4 -10 -10z"/>
<path d="M805 590 c-3 -5 -1 -10 4 -10 6 0 11 5 11 10 0 6 -2 10 -4 10 -3 0
-8 -4 -11 -10z"/>
<path d="M520 570 c0 -5 5 -10 10 -10 6 0 10 5 10 10 0 6 -4 10 -10 10 -5 0
-10 -4 -10 -10z"/>
<path d="M245 560 c-11 -17 5 -32 21 -19 8 6 14 15 14 20 0 12 -27 11 -35 -1z"/>
<path d="M460 551 c0 -12 6 -21 16 -21 9 0 14 7 12 17 -5 25 -28 28 -28 4z"/>
<path d="M810 560 c0 -5 5 -10 10 -10 6 0 10 5 10 10 0 6 -4 10 -10 10 -5 0
-10 -4 -10 -10z"/>
<path d="M190 500 c-8 -5 -12 -11 -10 -14 8 -7 60 6 60 15 0 12 -31 11 -50 -1z"/>
<path d="M780 495 c0 -9 6 -12 15 -9 8 4 15 10 15 15 0 5 -7 9 -15 9 -8 0 -15
-7 -15 -15z"/>
<path d="M470 479 c0 -5 5 -7 10 -4 6 3 10 8 10 11 0 2 -4 4 -10 4 -5 0 -10
-5 -10 -11z"/>
<path d="M40 466 c0 -12 7 -14 29 -10 21 5 29 2 28 -7 -3 -24 16 -25 19 -2 2
13 1 22 -4 22 -4 -1 -9 0 -12 1 -3 1 -17 4 -32 6 -20 3 -28 0 -28 -10z"/>
<path d="M140 470 c0 -5 5 -10 10 -10 6 0 10 5 10 10 0 6 -4 10 -10 10 -5 0
-10 -4 -10 -10z"/>
<path d="M250 470 c0 -5 -8 -10 -18 -10 -25 0 -34 -11 -21 -26 13 -15 39 -7
39 12 0 8 5 14 10 14 6 0 10 5 10 10 0 6 -4 10 -10 10 -5 0 -10 -4 -10 -10z"/>
<path d="M280 449 c0 -5 5 -7 10 -4 6 3 10 8 10 11 0 2 -4 4 -10 4 -5 0 -10
-5 -10 -11z"/>
<path d="M810 399 c0 -5 5 -7 10 -4 6 3 10 8 10 11 0 2 -4 4 -10 4 -5 0 -10
-5 -10 -11z"/>
<path d="M285 388 c-13 -40 -10 -53 16 -56 29 -3 44 18 34 49 -7 21 -43 26
-50 7z"/>
<path d="M410 389 c0 -5 5 -7 10 -4 6 3 10 8 10 11 0 2 -4 4 -10 4 -5 0 -10
-5 -10 -11z"/>
<path d="M910 390 c0 -5 7 -10 15 -10 8 0 15 5 15 10 0 6 -7 10 -15 10 -8 0
-15 -4 -15 -10z"/>
<path d="M485 381 c-3 -5 -1 -12 5 -16 12 -7 30 2 30 16 0 12 -27 12 -35 0z"/>
<path d="M380 369 c0 -5 5 -7 10 -4 6 3 10 8 10 11 0 2 -4 4 -10 4 -5 0 -10
-5 -10 -11z"/>
<path d="M120 306 c0 -31 14 -40 30 -21 15 18 6 45 -15 45 -9 0 -15 -9 -15
-24z"/>
<path d="M383 313 c-15 -5 -17 -39 -4 -47 17 -11 42 6 39 27 -3 22 -15 29 -35
20z"/>
<path d="M40 295 c0 -8 5 -15 10 -15 6 0 10 7 10 15 0 8 -4 15 -10 15 -5 0
-10 -7 -10 -15z"/>
<path d="M835 280 c3 -5 8 -10 11 -10 2 0 4 5 4 10 0 6 -5 10 -11 10 -5 0 -7
-4 -4 -10z"/>
<path d="M87 273 c-14 -14 -6 -61 14 -79 20 -18 21 -18 35 1 16 22 18 45 4 45
-5 0 -18 9 -28 20 -10 11 -22 17 -25 13z"/>
<path d="M167 255 c-4 -8 -2 -17 4 -20 5 -4 7 -11 4 -16 -11 -17 8 -9 21 8 9
13 9 22 2 30 -14 17 -25 16 -31 -2z"/>
<path d="M265 240 c3 -5 8 -10 11 -10 2 0 4 5 4 10 0 6 -5 10 -11 10 -5 0 -7
-4 -4 -10z"/>
<path d="M567 244 c-8 -8 1 -24 14 -24 5 0 9 7 9 15 0 15 -12 20 -23 9z"/>
<path d="M273 205 c-3 -9 -3 -18 0 -22 10 -10 37 6 37 22 0 20 -29 20 -37 0z"/>
<path d="M570 200 c0 -5 5 -10 10 -10 6 0 10 5 10 10 0 6 -4 10 -10 10 -5 0
-10 -4 -10 -10z"/>
<path d="M445 161 c-6 -11 9 -23 19 -14 9 9 7 23 -3 23 -6 0 -12 -4 -16 -9z"/>
<path d="M140 150 c0 -5 5 -10 10 -10 6 0 10 5 10 10 0 6 -4 10 -10 10 -5 0
-10 -4 -10 -10z"/>
<path d="M525 151 c-3 -5 -1 -12 5 -16 12 -7 30 2 30 16 0 12 -27 12 -35 0z"/>
<path d="M837 153 c-12 -11 -8 -23 8 -23 8 0 15 7 15 15 0 16 -12 20 -23 8z"/>
<path d="M454 119 c-3 -6 -1 -16 5 -22 9 -9 14 -8 21 3 9 15 4 30 -10 30 -5 0
-12 -5 -16 -11z"/>
<path d="M381 101 c-9 -15 -7 -20 12 -25 24 -6 53 16 43 33 -11 18 -44 13 -55
-8z"/>
<path d="M595 110 c-3 -5 1 -10 9 -10 9 0 16 5 16 10 0 6 -4 10 -9 10 -6 0
-13 -4 -16 -10z"/>
</g>
</svg>
